<svg width="511" height="25" viewBox="0 0 511 25" fill="none" xmlns="http://www.w3.org/2000/svg">
<path d="M511 3.69128C508.398 3.52349 506.014 3.52349 503.412 3.52349C500.81 3.52349 498.426 3.3557 495.824 3.18792C490.187 2.85235 484.767 2.34899 479.13 2.01342C468.507 1.34228 457.667 0.671141 447.044 0.503356C437.288 0.167785 427.315 0 417.559 0C414.957 0 412.356 0 409.971 0C400.215 0.167785 390.459 0.167785 380.703 0.33557C357.939 0.838926 334.958 1.34228 312.193 2.18121C289.863 3.02013 267.532 3.85906 245.419 4.86577C234.579 5.36913 223.522 5.87248 212.682 6.37584C200.758 7.21477 188.834 7.71812 177.126 8.38926C152.628 9.89933 128.346 11.2416 103.848 12.7517C82.6012 14.094 61.5715 15.9396 40.5418 18.2886C27.1001 19.9664 13.4417 21.8121 0 23.6577C15.3929 24.4966 31.0025 24.8322 46.6122 25C56.8019 25 66.9915 24.8322 76.9644 24.6644C83.4684 24.4966 89.9724 24.1611 96.6933 23.8255C100.812 23.6577 104.715 23.3221 108.617 22.9866C119.241 22.1477 130.081 21.4765 140.704 20.6376C153.062 19.7987 165.202 18.7919 177.56 17.953C190.135 17.1141 202.926 16.2752 215.5 15.4362C226.774 14.7651 238.264 14.094 249.755 13.4228C260.812 12.7517 272.085 12.2483 283.142 11.745C294.416 11.2416 305.473 10.7383 316.746 10.2349C328.237 9.73154 339.51 9.56376 351.001 9.22819C371.814 8.55705 392.627 8.38926 413.656 8.22148C425.364 8.22148 436.854 7.88591 448.561 7.55034C460.052 7.21477 471.542 6.87919 482.816 6.37584C487.369 6.20805 492.138 6.04027 496.691 5.7047C498.859 5.53691 501.244 5.36913 503.412 5.03356C505.363 4.69799 507.314 4.19463 509.266 4.02685C509.916 3.85906 510.35 3.69128 511 3.69128Z" fill="white"/>
</svg>
